<?xml version="1.0" encoding="utf-8"?>
<!-- Generator: Adobe Illustrator 17.1.0, SVG Export Plug-In . SVG Version: 6.00 Build 0)  -->
<!DOCTYPE svg PUBLIC "-//W3C//DTD SVG 1.1//EN" "http://www.w3.org/Graphics/SVG/1.1/DTD/svg11.dtd">
<svg version="1.1" xmlns="http://www.w3.org/2000/svg" xmlns:xlink="http://www.w3.org/1999/xlink" x="0px" y="0px"
	 viewBox="0 0 655.5 255.6" enable-background="new 0 0 655.5 255.6" xml:space="preserve">
<g id="header">
	<g>
		<g>
			<path fill="#1F140F" d="M126.9,235.9c-58,0-105.2-47.5-105.2-106c0-58.4,47.2-106,105.2-106c58,0,105.2,47.5,105.2,106
				C232.1,188.4,184.9,235.9,126.9,235.9z M217.4,129.9c0-50.3-40.6-91.1-90.4-91.1s-90.4,40.9-90.4,91.1c0,25,10.1,47.7,26.3,64.2
				c1.2-7.2,2.6-15.1,4-23.2c3.2-18.6,6.6-37.8,8.2-48.5c-5.7-5.7-9.2-9.2-12.6-14.5l-7.2-11l11.5-6.2C68,90,99.2,73.2,118.9,68
				l1.1-0.3c3.7-0.9,7.7-1.7,11.3-1.8l0.9,0c4.6,0,21.3,0.8,43.9,10.4c7.2,3,9.6,8.4,10.3,12.5c0.1,0.7,0.9,5.3,0.9,14.8
				c0,0.1-0.1,10.5-1.3,18.2c-0.3,1.8-1,6.5-4.9,10c-2.8,2.8-6.3,4.1-9.3,4.9c-0.1,0-6.2,1.7-12,3.8c0,0-5,1.9-8.4,3.2l-1.1,0.4
				c-0.3,0.1-0.7,0.3-1.2,0.4l0.2,3c0.7,8.6,5.5,46.5,8.3,68C192.5,202.9,217.4,169.3,217.4,129.9z M132,150.5
				c-1.7,0.6-9.9,2.8-16.1,1.7c-2.8-0.5-6.4-1.7-10-5.6c-3-3.2-6.6-9.5-7-18.1l0.4-0.4c5.3,6.2,12.3,11.4,12.3,11.4
				c2.5,1.8,4.7,2,4.6,2l0.3,0c2.6,0.2,8.3-1.3,11.7-2.4c6-2,19.1-6.7,19.1-6.7c3.5-1.4,8.6-3.3,8.6-3.3c6.2-2.3,12.7-4.1,12.9-4.2
				c2.8-0.8,3.7-1.4,4.2-2c0.8-0.6,1.1-1.9,1.3-3.3c0.2-1.2,0.3-2.5,0.5-3.9c-13.3,1.6-32.4,3.6-32.4,3.6s22.6-8.1,32.9-11.6
				c0.1-2.5,0.1-4.2,0.1-4.3c0-1.7,0-3.1-0.1-4.4c-7.1-0.7-15.9-2.8-16.4-3l-4.1-1.1c0,0,12.4-2.8,19.8-4.4
				c-0.3-1.8-1.4-2.7-3.1-3.4c-23.5-10.1-39.8-9.5-39.8-9.5c-3.1,0.1-7.4,1.1-9,1.5l-0.6,0.2c-18.6,4.7-49.8,21.7-49.8,21.7
				c2.2,3.4,4.6,6,8.2,9.6c5-6.7,10.6-9.9,10.6-9.9c-0.1,0.3-1.7,5.7-3.8,20.3h0c-2.2,15.3-9.6,56.4-13.9,82
				c15,11.2,33.5,17.8,53.6,17.8c6.6,0,13.1-0.7,19.3-2.1c-2.9-22.9-7.9-61.9-8.6-70.4C135.9,149.2,133.9,149.9,132,150.5z"/>
			<path fill="#1F140F" d="M136.9,102.6l5.7-12.6c-14.4,5.4-29.1,10.3-29.2,10.3C113.4,100.3,126,101.7,136.9,102.6z"/>
			<path fill="#1F140F" d="M94.4,204.5c-0.8,0-1.6-0.1-2.4-0.3c-2.5-0.6-4.6-2.2-6-4.5c-1.3-2.3-1.7-4.9-1.1-7.5
				c1.3-5.2,6.7-8.4,11.9-7.1c2.5,0.6,4.6,2.2,6,4.5c1.3,2.3,1.7,4.9,1.1,7.4C102.7,201.4,98.9,204.5,94.4,204.5z M94.4,189.9
				c-2.1,0-3.9,1.4-4.4,3.5c-0.3,1.2-0.1,2.4,0.5,3.5c0.6,1.1,1.6,1.8,2.8,2.1c2.5,0.7,5-0.9,5.6-3.3c0.3-1.2,0.1-2.4-0.5-3.5
				c-0.6-1.1-1.6-1.8-2.8-2.1C95.1,189.9,94.7,189.9,94.4,189.9z"/>
			<path fill="#1F140F" d="M124.1,204.5c-0.8,0-1.6-0.1-2.4-0.3c-5.2-1.4-8.4-6.7-7-12c1.3-5.1,6.7-8.4,11.8-7.1
				c2.5,0.6,4.6,2.3,6,4.5c1.3,2.3,1.7,4.9,1.1,7.4C132.5,201.4,128.6,204.5,124.1,204.5z M124.1,190c-2.1,0-3.9,1.4-4.4,3.5
				c-0.6,2.5,0.9,5,3.3,5.6c2.3,0.6,5-0.9,5.6-3.3c0.3-1.2,0.1-2.4-0.5-3.5c-0.6-1.1-1.6-1.8-2.8-2.1C124.8,190,124.5,190,124.1,190
				z"/>
			<path fill="#1F140F" d="M109.3,179.5c-0.8,0-1.6-0.1-2.4-0.3c-2.5-0.7-4.6-2.3-6-4.5c-1.3-2.3-1.7-4.9-1.1-7.4
				c1.3-5.1,6.7-8.4,11.8-7.1c2.5,0.6,4.6,2.2,6,4.5c1.3,2.3,1.7,4.9,1.1,7.4C117.7,176.4,113.8,179.5,109.3,179.5z M109.3,165
				c-2.1,0-3.9,1.4-4.4,3.5c-0.3,1.2-0.1,2.4,0.5,3.5c0.6,1.1,1.6,1.8,2.8,2.1c2.5,0.7,5-0.9,5.6-3.3c0.3-1.2,0.1-2.4-0.5-3.5
				c-0.6-1.1-1.6-1.8-2.8-2.1C110.1,165.1,109.7,165,109.3,165z"/>
		</g>
		<g>
			<g>
				<path fill="#1F140F" d="M320.1,169.8c-1.7,1.9-4.2,2.9-7.5,2.9c-1.4,0-2.6-0.2-3.8-0.5c-1.1-0.4-2.1-0.8-2.9-1.4
					c-0.8-0.6-1.4-1.3-1.9-2.1c-0.5-0.8-0.9-1.6-1.1-2.5c-0.2-0.9-0.4-1.8-0.4-2.7c0-1,0.1-1.9,0.4-2.8c0.3-0.9,0.7-1.7,1.2-2.5
					c0.6-0.8,1.2-1.5,2-2c0.8-0.6,1.7-1,2.8-1.4c1.1-0.3,2.3-0.5,3.6-0.5c2.4,0,4.5,0.5,6.4,1.6l0.4,0.2l-1.3,2.5l-0.5-0.2
					c-0.6-0.3-1.3-0.6-2.2-0.8c-0.9-0.2-1.8-0.4-2.7-0.4c-0.9,0-1.8,0.1-2.6,0.4c-0.8,0.3-1.6,0.7-2.2,1.2c-0.6,0.5-1.2,1.2-1.6,1.9
					c-0.4,0.8-0.6,1.6-0.6,2.6c0,1.2,0.3,2.3,1,3.3c0.6,1,1.5,1.7,2.7,2.3c1.1,0.5,2.4,0.8,3.8,0.8c1.6,0,2.8-0.4,3.8-1.1v-3.5h-5.6
					v-2.8l8.7,0V169.8z"/>
				<path fill="#1F140F" d="M325.2,154.4h3.8l4.8,7l4.9-7h3.6l-6.9,9.6v8.5h-3.6V164L325.2,154.4z"/>
				<path fill="#1F140F" d="M347.5,154.4h3.9l6,10.4l6.1-10.4h3.7v18.1h-3.2v-13.5l-5.1,8.3h-3l-5.1-8.4l0,13.5h-3.2L347.5,154.4z"
					/>
				<path fill="#1F140F" d="M394.4,154.3c1.9,0,3.7,0.3,5.4,1l0.5,0.2l-1,2.8l-0.5-0.2c-1.6-0.6-3.1-0.8-4.4-0.8c-1,0-2,0.2-2.9,0.5
					c-0.9,0.3-1.6,0.8-2.2,1.4c-0.6,0.6-1,1.2-1.4,2c-0.3,0.7-0.5,1.5-0.5,2.3c0,0.8,0.2,1.6,0.5,2.4c0.3,0.8,0.8,1.4,1.5,2
					c0.6,0.6,1.4,1,2.4,1.4c1,0.3,2,0.5,3.1,0.5c1.4,0,2.8-0.2,4.1-0.7l0.5-0.2l1,2.5l-0.5,0.2c-1.8,0.8-3.8,1.2-5.8,1.2
					c-1.6,0-3-0.2-4.3-0.7c-1.3-0.5-2.3-1.1-3.2-2c-0.8-0.8-1.5-1.8-1.9-2.9c-0.5-1.1-0.7-2.3-0.7-3.6c0-1.3,0.2-2.5,0.7-3.6
					c0.5-1.1,1.1-2.1,2-2.9c0.9-0.8,1.9-1.5,3.2-1.9C391.4,154.5,392.8,154.3,394.4,154.3z"/>
				<path fill="#1F140F" d="M406.7,154.4h3.2l0,15.1l9.1,0v2.9l-12.3,0L406.7,154.4z"/>
				<path fill="#1F140F" d="M432.8,172.7c-4.8,0-7.3-1.7-7.7-5c0-0.4-0.1-0.8-0.1-1.4v-0.2v-11.7h3.2v11.5c0,0.6,0.1,1.2,0.2,1.6
					c0.1,0.4,0.4,0.8,0.7,1.2c0.8,0.8,2,1.2,3.7,1.2c1.2,0,2.2-0.2,3-0.6c0.8-0.4,1.3-1,1.5-1.8c0.1-0.4,0.2-0.9,0.2-1.5v-11.5h3.2
					c0,2.6,0,4.8,0,6.5c0,1.7,0,2.8,0,3.2s0,0.9,0,1.1c0,0.3,0,0.5,0,0.7c0,0.4,0,0.8,0,1.1c0,0.3-0.1,0.7-0.2,1.2
					c-0.1,0.5-0.3,0.9-0.5,1.3c-0.2,0.4-0.5,0.8-0.9,1.2c-0.4,0.4-0.9,0.8-1.4,1c-0.5,0.3-1.2,0.5-2,0.7
					C434.8,172.6,433.9,172.7,432.8,172.7z"/>
				<path fill="#1F140F" d="M448.9,154.4h6.8c0.8,0,1.5,0.1,2.1,0.2c0.6,0.1,1.2,0.3,1.6,0.5c0.4,0.2,0.8,0.4,1.2,0.7
					c0.3,0.3,0.6,0.5,0.8,0.8c0.2,0.3,0.4,0.6,0.5,0.9c0.1,0.3,0.2,0.6,0.3,0.8c0,0.3,0.1,0.5,0.1,0.7c0,0.6-0.2,1.2-0.5,1.8
					c-0.3,0.6-0.7,1.1-1.2,1.5c0.9,0.4,1.7,1,2.3,1.8c0.6,0.8,0.9,1.7,0.9,2.7c0,0.3,0,0.6-0.1,0.9c0,0.3-0.2,0.6-0.3,1
					c-0.2,0.4-0.4,0.7-0.6,1.1c-0.3,0.3-0.6,0.7-1,1c-0.4,0.3-0.9,0.6-1.5,0.9c-0.6,0.2-1.3,0.4-2.1,0.6c-0.8,0.1-1.8,0.2-2.8,0.2
					h-6.4V154.4z M455,157.1h-2.9v5c1.8,0,3.1-0.1,3.8-0.2c1.8-0.3,2.7-1.1,2.8-2.2c0-0.1,0-0.2,0-0.3c0-0.3,0-0.5-0.1-0.8
					c-0.1-0.2-0.3-0.5-0.5-0.7c-0.2-0.2-0.6-0.4-1.1-0.6C456.4,157.2,455.8,157.1,455,157.1z M455.2,164.1c-0.1,0-1.1,0-3.1,0.1v5.2
					h2.8c0.3,0,0.6,0,0.9,0c0.2,0,0.6,0,1-0.1c0.4,0,0.8-0.1,1.1-0.1c0.3-0.1,0.6-0.2,1-0.3c0.4-0.1,0.6-0.3,0.9-0.5
					c0.2-0.2,0.4-0.4,0.6-0.7c0.2-0.3,0.2-0.6,0.2-0.9c0-0.9-0.5-1.6-1.4-2.1C458.1,164.4,456.8,164.1,455.2,164.1z"/>
				<path fill="#1F140F" d="M489.9,154.3c1.9,0,3.7,0.3,5.4,1l0.5,0.2l-1,2.7l-0.5-0.2c-1.6-0.5-3.1-0.8-4.4-0.8c-1,0-2,0.2-2.9,0.5
					c-0.9,0.3-1.6,0.8-2.2,1.4c-0.6,0.6-1,1.2-1.4,2c-0.3,0.7-0.5,1.5-0.5,2.3c0,0.8,0.2,1.6,0.5,2.4c0.3,0.8,0.8,1.4,1.5,2
					c0.6,0.6,1.4,1,2.4,1.4c1,0.3,2,0.5,3.1,0.5c1.4,0,2.8-0.3,4.1-0.7l0.5-0.2l1,2.5l-0.5,0.2c-1.8,0.8-3.8,1.2-5.8,1.2
					c-1.6,0-3-0.2-4.3-0.7c-1.3-0.5-2.3-1.1-3.2-2c-0.8-0.8-1.5-1.8-1.9-2.9c-0.5-1.1-0.7-2.3-0.7-3.6c0-1.3,0.2-2.5,0.7-3.6
					c0.5-1.1,1.1-2.1,2-2.9c0.9-0.8,1.9-1.5,3.2-1.9C486.9,154.5,488.3,154.3,489.9,154.3z"/>
				<path fill="#1F140F" d="M515,154.4h3.2l0,18.1H515v-7.9h-9.6v7.9h-3.2v-18.1h3.2v7.3h9.6V154.4z"/>
				<path fill="#1F140F" d="M535,154.2c1.8,0,3.5,0.4,4.9,1.1c1.4,0.7,2.5,1.8,3.4,3.2c0.8,1.4,1.2,3,1.2,4.8c0,1.9-0.4,3.5-1.2,4.9
					c-0.8,1.4-1.9,2.5-3.4,3.3c-1.4,0.8-3.1,1.2-5,1.2c-1.2,0-2.4-0.2-3.5-0.6c-1.1-0.4-2.1-1-3-1.7c-0.9-0.7-1.6-1.7-2.1-2.9
					c-0.5-1.2-0.8-2.5-0.8-4c0-1.9,0.4-3.5,1.2-4.9c0.8-1.4,1.9-2.5,3.4-3.2C531.5,154.6,533.1,154.2,535,154.2z M536.6,157.4
					c-0.6-0.1-1.2-0.2-1.8-0.2c-0.6,0-1.2,0.1-1.8,0.2s-1.1,0.4-1.6,0.7c-0.5,0.3-1,0.7-1.4,1.2c-0.4,0.5-0.7,1-0.9,1.7
					c-0.2,0.7-0.4,1.4-0.4,2.3c0,2,0.6,3.5,1.8,4.7c1.2,1.2,2.7,1.8,4.5,1.8c0.7,0,1.5-0.1,2.2-0.4c0.7-0.2,1.4-0.6,2-1.1
					c0.6-0.5,1.1-1.1,1.4-2c0.4-0.8,0.5-1.8,0.5-2.8c0-0.9-0.1-1.7-0.4-2.4c-0.3-0.7-0.6-1.3-1-1.8c-0.4-0.5-0.9-0.9-1.4-1.2
					C537.8,157.8,537.2,157.5,536.6,157.4z"/>
				<path fill="#1F140F" d="M551.7,154.4h3.2v15.1l9.1,0v2.9l-12.3,0V154.4z"/>
				<path fill="#1F140F" d="M577.9,172.8c-4.8,0-7.3-1.7-7.8-5c0-0.4-0.1-0.8-0.1-1.4v-0.2l0-11.7h3.2l0,11.5c0,0.6,0.1,1.2,0.2,1.6
					c0.1,0.4,0.4,0.8,0.7,1.2c0.8,0.8,2.1,1.2,3.7,1.2c1.2,0,2.2-0.2,3-0.6c0.8-0.4,1.3-1,1.5-1.8c0.1-0.4,0.2-0.9,0.2-1.5l0-11.5
					h3.2c0,2.6,0,4.8,0,6.5c0,1.7,0,2.8,0,3.2c0,0.5,0,0.9,0,1.1c0,0.3,0,0.5,0,0.7c0,0.4,0,0.8,0,1.1c0,0.3-0.1,0.7-0.2,1.2
					c-0.1,0.5-0.3,0.9-0.5,1.3c-0.2,0.4-0.5,0.8-0.9,1.2c-0.4,0.4-0.9,0.8-1.4,1c-0.5,0.3-1.2,0.5-2,0.7
					C579.8,172.7,578.9,172.8,577.9,172.8z"/>
				<path fill="#1F140F" d="M593.9,154.4h3.2l0,15.1l9.1,0v2.9l-12.3,0L593.9,154.4z"/>
				<path fill="#1F140F" d="M617.3,154.4h3.5l7.1,18.1h-3.3l-2-4.7h-7.3l-2,4.7h-3.1L617.3,154.4z M621.5,164.8l-2.5-6.7l-2.6,6.7
					H621.5z"/>
			</g>
			<g>
				<path fill="#1F140F" d="M337.2,103.7c-2.7-3.4-6.1-5-10.1-5c-1.8,0-3.4,0.3-4.9,1c-1.5,0.6-2.8,1.5-3.9,2.6
					c-1.1,1.1-1.9,2.4-2.6,4c-0.6,1.5-0.9,3.2-0.9,5c0,1.8,0.3,3.5,0.9,5c0.6,1.5,1.5,2.9,2.6,4c1.1,1.1,2.4,2,3.9,2.7
					c1.5,0.6,3.1,1,4.8,1c3.8,0,7.2-1.6,10.2-4.8V133l-1.2,0.4c-1.8,0.6-3.5,1.1-5,1.4c-1.6,0.3-3.1,0.5-4.6,0.5
					c-3.1,0-6.1-0.6-9-1.8c-2.9-1.2-5.4-2.9-7.6-5c-2.2-2.2-3.9-4.7-5.3-7.7c-1.3-3-2-6.2-2-9.7c0-3.5,0.6-6.7,2-9.7
					c1.3-2.9,3-5.5,5.2-7.6c2.2-2.1,4.7-3.8,7.6-5c2.9-1.2,5.9-1.8,9.1-1.8c1.8,0,3.6,0.2,5.3,0.6c1.7,0.4,3.6,1,5.5,1.8V103.7z"/>
				<path fill="#1F140F" d="M359.8,88.4v45.7H348V88.4H359.8z"/>
				<path fill="#1F140F" d="M369.1,134.1l7.7-45.7h11.7l9.1,24.4l9-24.4h11.7l7.7,45.7h-11.7l-3.9-26.3l-10.7,26.3h-4.7l-10.2-26.3
					l-3.9,26.3H369.1z"/>
				<path fill="#1F140F" d="M460.2,98.4h-14v7.6h13.2v10.1h-13.2v7.9h14v10.1h-25.8V88.4h25.8V98.4z"/>
				<path fill="#1F140F" d="M508.7,134.1h-14.7l-11.2-17.6v17.6H471V88.4h18.3c2.5,0,4.7,0.4,6.6,1.1c1.9,0.7,3.4,1.8,4.7,3.1
					c1.2,1.3,2.1,2.8,2.8,4.5c0.6,1.7,0.9,3.5,0.9,5.5c0,3.5-0.8,6.3-2.5,8.5c-1.7,2.2-4.1,3.6-7.4,4.4L508.7,134.1z M482.8,108.8
					h2.2c2.3,0,4.1-0.5,5.4-1.5c1.2-1,1.9-2.4,1.9-4.2s-0.6-3.2-1.9-4.2c-1.2-1-3-1.5-5.4-1.5h-2.2V108.8z"/>
				<path fill="#1F140F" d="M542.7,126.1h-16.8l-2.7,7.9h-12.6l17.3-45.7h12.9l17.3,45.7h-12.6L542.7,126.1z M539.6,117.1l-5.3-15.2
					l-5.3,15.2H539.6z"/>
			</g>
		</g>
	</g>
</g>
<g id="columnas_y_filas" display="none">
</g>
<g id="guias" display="none">
</g>
</svg>
